<svg width="974" height="1265" viewBox="0 0 974 1265" fill="none" xmlns="http://www.w3.org/2000/svg">
<path opacity="0.3" d="M314.323 38.3549C493.09 -65.216 751.561 48.1858 891.634 291.644C892.526 293.195 893.429 294.738 894.308 296.291L974 434.803V732.479C974 980.809 812.089 1191.33 588.06 1264.26L307.295 776.235C249.276 778.652 13.064 800.205 0.645822 769.271C-10.3365 741.914 121.341 629.471 198.127 569.935C114.886 352.849 158.885 128.409 314.323 38.3549ZM721.232 398.762C672.575 314.193 564.811 285.217 480.534 334.043C396.259 382.87 367.384 491.009 416.04 575.578C464.697 660.148 572.461 689.123 656.737 640.297C741.013 591.471 769.888 483.332 721.232 398.762ZM545.434 429.726C576.16 411.989 615.449 422.515 633.189 453.236C650.928 483.957 640.4 523.24 609.675 540.977C578.949 558.714 539.66 548.188 521.92 517.467C504.181 486.746 514.708 447.463 545.434 429.726Z" fill="#FFF9F1"/>
</svg>
