<svg width="60" height="60" viewBox="0 0 60 60" fill="none" xmlns="http://www.w3.org/2000/svg">
<path d="M8.28158 37.8095C7.74622 36.476 14.3538 30.8822 17.9445 28.1249L20.7732 33.5318L23.4408 38.1517C23.3137 37.9317 8.95078 39.4765 8.28158 37.8095Z" fill="#FFD53C"/>
<path fill-rule="evenodd" clip-rule="evenodd" d="M52.7873 34.7624V20.6351L49.0052 14.0615C48.9635 13.9878 48.9207 13.9146 48.8783 13.841C42.2307 2.2868 29.964 -3.09506 21.4799 1.82028C12.9959 6.73561 11.5072 20.0868 18.1548 31.641C18.1972 31.7146 18.2398 31.7879 18.2826 31.861L34.4711 60C45.1032 56.5388 52.7873 46.5478 52.7873 34.7624ZM40.7913 18.9247C43.1004 22.9383 41.7301 28.0704 37.7304 30.3876C33.7308 32.7048 28.6165 31.3297 26.3073 27.3161C23.9981 23.3026 25.3685 18.1704 29.3681 15.8532C33.3678 13.536 38.4821 14.9111 40.7913 18.9247Z" fill="#FE6A15"/>
<path d="M40.7913 18.9247C43.1004 22.9383 41.7301 28.0704 37.7304 30.3876C33.7308 32.7048 28.6165 31.3297 26.3073 27.3161C23.9981 23.3026 25.3685 18.1704 29.3681 15.8532C33.3678 13.536 38.4821 14.9111 40.7913 18.9247Z" fill="white"/>
<ellipse cx="3.04865" cy="3.04843" rx="3.04865" ry="3.04843" transform="matrix(0.866058 -0.499944 0.500056 0.865993 29 21.7983)" fill="black"/>
</svg>
