<svg width="190" height="34" viewBox="0 0 190 34" fill="none" xmlns="http://www.w3.org/2000/svg">
<g clip-path="url(#clip0_597_10211)">
<path d="M21.88 13.96C21.88 15.5867 21.5067 17.08 20.76 18.44C20.0133 19.7733 18.8667 20.8533 17.32 21.68C15.7733 22.5067 13.8533 22.92 11.56 22.92H7.31998V33H0.47998V4.92002H11.56C13.8 4.92002 15.6933 5.30669 17.24 6.08002C18.7867 6.85335 19.9467 7.92002 20.72 9.28002C21.4933 10.64 21.88 12.2 21.88 13.96ZM11.04 17.48C12.3467 17.48 13.32 17.1733 13.96 16.56C14.6 15.9467 14.92 15.08 14.92 13.96C14.92 12.84 14.6 11.9733 13.96 11.36C13.32 10.7467 12.3467 10.44 11.04 10.44H7.31998V17.48H11.04ZM28.8809 8.36002C27.6809 8.36002 26.6943 8.01335 25.9209 7.32002C25.1743 6.60002 24.8009 5.72002 24.8009 4.68002C24.8009 3.61335 25.1743 2.73335 25.9209 2.04002C26.6943 1.32002 27.6809 0.960022 28.8809 0.960022C30.0543 0.960022 31.0143 1.32002 31.7609 2.04002C32.5343 2.73335 32.9209 3.61335 32.9209 4.68002C32.9209 5.72002 32.5343 6.60002 31.7609 7.32002C31.0143 8.01335 30.0543 8.36002 28.8809 8.36002ZM32.2809 10.68V33H25.4409V10.68H32.2809ZM50.8778 33L44.0778 23.64V33H37.2378V3.40002H44.0778V19.76L50.8378 10.68H59.2778L49.9978 21.88L59.3578 33H50.8778ZM60.6044 21.8C60.6044 19.5067 61.031 17.4933 61.8844 15.76C62.7644 14.0267 63.951 12.6933 65.4444 11.76C66.9377 10.8267 68.6044 10.36 70.4444 10.36C72.0177 10.36 73.391 10.68 74.5644 11.32C75.7644 11.96 76.6844 12.8 77.3244 13.84V10.68H84.1644V33H77.3244V29.84C76.6577 30.88 75.7244 31.72 74.5244 32.36C73.351 33 71.9777 33.32 70.4044 33.32C68.591 33.32 66.9377 32.8533 65.4444 31.92C63.951 30.96 62.7644 29.6133 61.8844 27.88C61.031 26.12 60.6044 24.0933 60.6044 21.8ZM77.3244 21.84C77.3244 20.1333 76.8444 18.7867 75.8844 17.8C74.951 16.8133 73.8044 16.32 72.4444 16.32C71.0844 16.32 69.9244 16.8133 68.9644 17.8C68.031 18.76 67.5644 20.0933 67.5644 21.8C67.5644 23.5067 68.031 24.8667 68.9644 25.88C69.9244 26.8667 71.0844 27.36 72.4444 27.36C73.8044 27.36 74.951 26.8667 75.8844 25.88C76.8444 24.8933 77.3244 23.5467 77.3244 21.84ZM95.9528 13.84C96.5928 12.8 97.5128 11.96 98.7128 11.32C99.9128 10.68 101.286 10.36 102.833 10.36C104.673 10.36 106.339 10.8267 107.833 11.76C109.326 12.6933 110.499 14.0267 111.353 15.76C112.233 17.4933 112.673 19.5067 112.673 21.8C112.673 24.0933 112.233 26.12 111.353 27.88C110.499 29.6133 109.326 30.96 107.833 31.92C106.339 32.8533 104.673 33.32 102.833 33.32C101.259 33.32 99.8861 33.0133 98.7128 32.4C97.5395 31.76 96.6195 30.92 95.9528 29.88V33H89.1128V3.40002H95.9528V13.84ZM105.713 21.8C105.713 20.0933 105.233 18.76 104.273 17.8C103.339 16.8133 102.179 16.32 100.793 16.32C99.4328 16.32 98.2728 16.8133 97.3128 17.8C96.3795 18.7867 95.9128 20.1333 95.9128 21.84C95.9128 23.5467 96.3795 24.8933 97.3128 25.88C98.2728 26.8667 99.4328 27.36 100.793 27.36C102.153 27.36 103.313 26.8667 104.273 25.88C105.233 24.8667 105.713 23.5067 105.713 21.8ZM126.421 33.32C124.235 33.32 122.261 32.8533 120.501 31.92C118.768 30.9867 117.395 29.6533 116.381 27.92C115.395 26.1867 114.901 24.16 114.901 21.84C114.901 19.5467 115.408 17.5333 116.421 15.8C117.435 14.04 118.821 12.6933 120.581 11.76C122.341 10.8267 124.315 10.36 126.501 10.36C128.688 10.36 130.661 10.8267 132.421 11.76C134.181 12.6933 135.568 14.04 136.581 15.8C137.595 17.5333 138.101 19.5467 138.101 21.84C138.101 24.1333 137.581 26.16 136.541 27.92C135.528 29.6533 134.128 30.9867 132.341 31.92C130.581 32.8533 128.608 33.32 126.421 33.32ZM126.421 27.4C127.728 27.4 128.835 26.92 129.741 25.96C130.675 25 131.141 23.6267 131.141 21.84C131.141 20.0533 130.688 18.68 129.781 17.72C128.901 16.76 127.808 16.28 126.501 16.28C125.168 16.28 124.061 16.76 123.181 17.72C122.301 18.6533 121.861 20.0267 121.861 21.84C121.861 23.6267 122.288 25 123.141 25.96C124.021 26.92 125.115 27.4 126.421 27.4ZM151.89 33.32C149.703 33.32 147.73 32.8533 145.97 31.92C144.237 30.9867 142.863 29.6533 141.85 27.92C140.863 26.1867 140.37 24.16 140.37 21.84C140.37 19.5467 140.877 17.5333 141.89 15.8C142.903 14.04 144.29 12.6933 146.05 11.76C147.81 10.8267 149.783 10.36 151.97 10.36C154.157 10.36 156.13 10.8267 157.89 11.76C159.65 12.6933 161.037 14.04 162.05 15.8C163.063 17.5333 163.57 19.5467 163.57 21.84C163.57 24.1333 163.05 26.16 162.01 27.92C160.997 29.6533 159.597 30.9867 157.81 31.92C156.05 32.8533 154.077 33.32 151.89 33.32ZM151.89 27.4C153.197 27.4 154.303 26.92 155.21 25.96C156.143 25 156.61 23.6267 156.61 21.84C156.61 20.0533 156.157 18.68 155.25 17.72C154.37 16.76 153.277 16.28 151.97 16.28C150.637 16.28 149.53 16.76 148.65 17.72C147.77 18.6533 147.33 20.0267 147.33 21.84C147.33 23.6267 147.757 25 148.61 25.96C149.49 26.92 150.583 27.4 151.89 27.4ZM180.839 33L174.039 23.64V33H167.199V3.40002H174.039V19.76L180.799 10.68H189.239L179.959 21.88L189.319 33H180.839Z" fill="#FE6A15"/>
</g>
<defs>
<clipPath id="clip0_597_10211">
<rect width="190" height="34" fill="white"/>
</clipPath>
</defs>
</svg>
