<svg width="126" height="126" viewBox="0 0 126 126" fill="none" xmlns="http://www.w3.org/2000/svg">
<g clip-path="url(#clip0_534_8093)">
<path fill-rule="evenodd" clip-rule="evenodd" d="M119.131 53.9493C119.199 54.0678 119.267 54.1864 119.335 54.3051L119.336 54.3043L157.808 120.94L108.186 149.59L69.7134 82.954L69.7148 82.9532C69.6457 82.8355 69.5769 82.7174 69.5085 82.599C58.7716 64.0022 61.1761 42.513 74.879 34.6017C88.5819 26.6903 108.394 35.3525 119.131 53.9493ZM100.719 80.1747C107.179 76.4451 109.392 68.1848 105.662 61.7248C101.933 55.2649 93.6725 53.0515 87.2125 56.7812C80.7526 60.5108 78.5393 68.7711 82.2689 75.2311C85.9986 81.691 94.2589 83.9044 100.719 80.1747Z" fill="#FE6A15"/>
<path d="M100.719 80.1747C107.179 76.4451 109.392 68.1848 105.662 61.7248C101.933 55.2649 93.6725 53.0515 87.2125 56.7812C80.7526 60.5108 78.5393 68.7711 82.2689 75.2311C85.9986 81.691 94.2589 83.9044 100.719 80.1747Z" fill="white"/>
<path d="M51.2269 92.68C50.3645 90.5314 61.0089 81.5188 66.7933 77.0765L71.3501 85.7879L75.6474 93.2314C75.4427 92.8769 52.305 95.3658 51.2269 92.68Z" fill="#FFD53C"/>
<circle cx="94.5247" cy="68.6278" r="4.91136" transform="rotate(-30 94.5247 68.6278)" fill="black"/>
</g>
<defs>
<clipPath id="clip0_534_8093">
<rect width="126" height="126" rx="30" fill="white"/>
</clipPath>
</defs>
</svg>
