<svg width="190" height="188" viewBox="0 0 190 188" fill="none" xmlns="http://www.w3.org/2000/svg">
<path d="M180.839 187L174.039 177.64V187H167.199V157.4H174.039V173.76L180.799 164.68H189.239L179.959 175.88L189.319 187H180.839Z" fill="white"/>
<path d="M151.89 187.32C149.703 187.32 147.73 186.853 145.97 185.92C144.237 184.987 142.863 183.653 141.85 181.92C140.863 180.187 140.37 178.16 140.37 175.84C140.37 173.547 140.877 171.533 141.89 169.8C142.903 168.04 144.29 166.693 146.05 165.76C147.81 164.827 149.783 164.36 151.97 164.36C154.157 164.36 156.13 164.827 157.89 165.76C159.65 166.693 161.037 168.04 162.05 169.8C163.063 171.533 163.57 173.547 163.57 175.84C163.57 178.133 163.05 180.16 162.01 181.92C160.997 183.653 159.597 184.987 157.81 185.92C156.05 186.853 154.077 187.32 151.89 187.32ZM151.89 181.4C153.197 181.4 154.303 180.92 155.21 179.96C156.143 179 156.61 177.627 156.61 175.84C156.61 174.053 156.157 172.68 155.25 171.72C154.37 170.76 153.277 170.28 151.97 170.28C150.637 170.28 149.53 170.76 148.65 171.72C147.77 172.653 147.33 174.027 147.33 175.84C147.33 177.627 147.757 179 148.61 179.96C149.49 180.92 150.583 181.4 151.89 181.4Z" fill="white"/>
<path d="M126.421 187.32C124.234 187.32 122.261 186.853 120.501 185.92C118.768 184.987 117.394 183.653 116.381 181.92C115.394 180.187 114.901 178.16 114.901 175.84C114.901 173.547 115.408 171.533 116.421 169.8C117.434 168.04 118.821 166.693 120.581 165.76C122.341 164.827 124.314 164.36 126.501 164.36C128.688 164.36 130.661 164.827 132.421 165.76C134.181 166.693 135.568 168.04 136.581 169.8C137.594 171.533 138.101 173.547 138.101 175.84C138.101 178.133 137.581 180.16 136.541 181.92C135.528 183.653 134.128 184.987 132.341 185.92C130.581 186.853 128.608 187.32 126.421 187.32ZM126.421 181.4C127.728 181.4 128.834 180.92 129.741 179.96C130.674 179 131.141 177.627 131.141 175.84C131.141 174.053 130.688 172.68 129.781 171.72C128.901 170.76 127.808 170.28 126.501 170.28C125.168 170.28 124.061 170.76 123.181 171.72C122.301 172.653 121.861 174.027 121.861 175.84C121.861 177.627 122.288 179 123.141 179.96C124.021 180.92 125.114 181.4 126.421 181.4Z" fill="white"/>
<path d="M95.9528 167.84C96.5928 166.8 97.5128 165.96 98.7128 165.32C99.9128 164.68 101.286 164.36 102.833 164.36C104.673 164.36 106.339 164.827 107.833 165.76C109.326 166.693 110.499 168.027 111.353 169.76C112.233 171.493 112.673 173.507 112.673 175.8C112.673 178.093 112.233 180.12 111.353 181.88C110.499 183.613 109.326 184.96 107.833 185.92C106.339 186.853 104.673 187.32 102.833 187.32C101.259 187.32 99.8861 187.013 98.7128 186.4C97.5395 185.76 96.6195 184.92 95.9528 183.88V187H89.1128V157.4H95.9528V167.84ZM105.713 175.8C105.713 174.093 105.233 172.76 104.273 171.8C103.339 170.813 102.179 170.32 100.793 170.32C99.4328 170.32 98.2728 170.813 97.3128 171.8C96.3795 172.787 95.9128 174.133 95.9128 175.84C95.9128 177.547 96.3795 178.893 97.3128 179.88C98.2728 180.867 99.4328 181.36 100.793 181.36C102.153 181.36 103.313 180.867 104.273 179.88C105.233 178.867 105.713 177.507 105.713 175.8Z" fill="white"/>
<path d="M60.6042 175.8C60.6042 173.507 61.0309 171.493 61.8843 169.76C62.7643 168.027 63.9509 166.693 65.4442 165.76C66.9376 164.827 68.6042 164.36 70.4442 164.36C72.0176 164.36 73.3909 164.68 74.5643 165.32C75.7643 165.96 76.6843 166.8 77.3243 167.84V164.68H84.1642V187H77.3243V183.84C76.6576 184.88 75.7243 185.72 74.5243 186.36C73.3509 187 71.9776 187.32 70.4042 187.32C68.5909 187.32 66.9376 186.853 65.4442 185.92C63.9509 184.96 62.7643 183.613 61.8843 181.88C61.0309 180.12 60.6042 178.093 60.6042 175.8ZM77.3243 175.84C77.3243 174.133 76.8443 172.787 75.8843 171.8C74.9509 170.813 73.8042 170.32 72.4442 170.32C71.0842 170.32 69.9243 170.813 68.9643 171.8C68.0309 172.76 67.5643 174.093 67.5643 175.8C67.5643 177.507 68.0309 178.867 68.9643 179.88C69.9243 180.867 71.0842 181.36 72.4442 181.36C73.8042 181.36 74.9509 180.867 75.8843 179.88C76.8443 178.893 77.3243 177.547 77.3243 175.84Z" fill="white"/>
<path d="M50.8778 187L44.0778 177.64V187H37.2378V157.4H44.0778V173.76L50.8378 164.68H59.2778L49.9978 175.88L59.3578 187H50.8778Z" fill="white"/>
<path d="M28.881 162.36C27.681 162.36 26.6944 162.013 25.921 161.32C25.1744 160.6 24.801 159.72 24.801 158.68C24.801 157.613 25.1744 156.733 25.921 156.04C26.6944 155.32 27.681 154.96 28.881 154.96C30.0544 154.96 31.0144 155.32 31.761 156.04C32.5344 156.733 32.921 157.613 32.921 158.68C32.921 159.72 32.5344 160.6 31.761 161.32C31.0144 162.013 30.0544 162.36 28.881 162.36ZM32.281 164.68V187H25.441V164.68H32.281Z" fill="white"/>
<path d="M21.88 167.96C21.88 169.587 21.5066 171.08 20.76 172.44C20.0133 173.773 18.8666 174.853 17.32 175.68C15.7733 176.507 13.8533 176.92 11.56 176.92H7.31998V187H0.47998V158.92H11.56C13.8 158.92 15.6933 159.307 17.24 160.08C18.7866 160.853 19.9466 161.92 20.72 163.28C21.4933 164.64 21.88 166.2 21.88 167.96ZM11.04 171.48C12.3466 171.48 13.32 171.173 13.96 170.56C14.6 169.947 14.92 169.08 14.92 167.96C14.92 166.84 14.6 165.973 13.96 165.36C13.32 164.747 12.3466 164.44 11.04 164.44H7.31998V171.48H11.04Z" fill="white"/>
<g clip-path="url(#clip0_553_8241)">
<path fill-rule="evenodd" clip-rule="evenodd" d="M150.131 53.9493C150.199 54.0678 150.267 54.1864 150.335 54.3051L150.336 54.3043L188.808 120.94L139.186 149.59L100.713 82.954L100.715 82.9532C100.646 82.8355 100.577 82.7174 100.508 82.599C89.7716 64.0022 92.1761 42.513 105.879 34.6017C119.582 26.6903 139.394 35.3525 150.131 53.9493ZM131.719 80.1747C138.179 76.4451 140.392 68.1848 136.662 61.7248C132.933 55.2649 124.672 53.0515 118.213 56.7812C111.753 60.5108 109.539 68.7711 113.269 75.2311C116.999 81.691 125.259 83.9044 131.719 80.1747Z" fill="#FE6A15"/>
<path d="M131.719 80.1747C138.179 76.4451 140.392 68.1848 136.662 61.7248C132.933 55.2649 124.672 53.0515 118.213 56.7812C111.753 60.5108 109.539 68.7711 113.269 75.2311C116.999 81.691 125.259 83.9044 131.719 80.1747Z" fill="white"/>
<path d="M82.2269 92.68C81.3645 90.5314 92.0089 81.5188 97.7933 77.0765L102.35 85.7879L106.647 93.2314C106.443 92.8769 83.305 95.3658 82.2269 92.68Z" fill="#FFD53C"/>
<circle cx="125.525" cy="68.6278" r="4.91136" transform="rotate(-30 125.525 68.6278)" fill="black"/>
</g>
<defs>
<clipPath id="clip0_553_8241">
<rect x="31" width="126" height="126" rx="30" fill="white"/>
</clipPath>
</defs>
</svg>
