<svg width="306" height="113" viewBox="0 0 306 113" fill="none" xmlns="http://www.w3.org/2000/svg">
<path d="M273.336 105.684L263.182 91.7066V105.684H252.967V61.4814H263.182V85.9124L273.277 72.3529H285.881L272.022 89.0783L286 105.684H273.336Z" fill="white"/>
<path d="M230.106 106.162C226.841 106.162 223.894 105.465 221.266 104.071C218.677 102.678 216.626 100.687 215.113 98.0981C213.64 95.5097 212.903 92.4832 212.903 89.0186C212.903 85.5939 213.66 82.5873 215.173 79.9989C216.686 77.3706 218.757 75.3596 221.385 73.9658C224.013 72.572 226.96 71.8751 230.226 71.8751C233.491 71.8751 236.438 72.572 239.066 73.9658C241.695 75.3596 243.765 77.3706 245.279 79.9989C246.792 82.5873 247.548 85.5939 247.548 89.0186C247.548 92.4433 246.772 95.4698 245.219 98.0981C243.706 100.687 241.615 102.678 238.947 104.071C236.318 105.465 233.372 106.162 230.106 106.162ZM230.106 97.3216C232.058 97.3216 233.71 96.6048 235.064 95.1712C236.458 93.7376 237.155 91.6867 237.155 89.0186C237.155 86.3505 236.478 84.2997 235.124 82.8661C233.81 81.4325 232.177 80.7157 230.226 80.7157C228.235 80.7157 226.582 81.4325 225.268 82.8661C223.954 84.2599 223.297 86.3107 223.297 89.0186C223.297 91.6867 223.934 93.7376 225.208 95.1712C226.522 96.6048 228.155 97.3216 230.106 97.3216Z" fill="white"/>
<path d="M192.073 106.162C188.807 106.162 185.861 105.465 183.232 104.071C180.644 102.678 178.593 100.687 177.08 98.0981C175.606 95.5097 174.87 92.4832 174.87 89.0186C174.87 85.5939 175.626 82.5873 177.139 79.9989C178.653 77.3706 180.723 75.3596 183.352 73.9658C185.98 72.572 188.927 71.8751 192.192 71.8751C195.458 71.8751 198.405 72.572 201.033 73.9658C203.661 75.3596 205.732 77.3706 207.245 79.9989C208.758 82.5873 209.515 85.5939 209.515 89.0186C209.515 92.4433 208.738 95.4698 207.185 98.0981C205.672 100.687 203.581 102.678 200.913 104.071C198.285 105.465 195.338 106.162 192.073 106.162ZM192.073 97.3216C194.024 97.3216 195.677 96.6048 197.031 95.1712C198.424 93.7376 199.121 91.6867 199.121 89.0186C199.121 86.3505 198.444 84.2997 197.09 82.8661C195.776 81.4325 194.144 80.7157 192.192 80.7157C190.201 80.7157 188.549 81.4325 187.234 82.8661C185.92 84.2599 185.263 86.3107 185.263 89.0186C185.263 91.6867 185.9 93.7376 187.175 95.1712C188.489 96.6048 190.122 97.3216 192.073 97.3216Z" fill="white"/>
<path d="M146.573 77.0719C147.529 75.5188 148.903 74.2644 150.695 73.3087C152.487 72.3529 154.538 71.8751 156.847 71.8751C159.595 71.8751 162.084 72.572 164.314 73.9657C166.544 75.3595 168.296 77.3506 169.571 79.9391C170.885 82.5275 171.542 85.5341 171.542 88.9588C171.542 92.3836 170.885 95.4101 169.571 98.0383C168.296 100.627 166.544 102.638 164.314 104.071C162.084 105.465 159.595 106.162 156.847 106.162C154.498 106.162 152.447 105.704 150.695 104.788C148.943 103.832 147.569 102.578 146.573 101.025V105.684H136.359V61.4814H146.573V77.0719ZM161.148 88.9588C161.148 86.4102 160.431 84.4191 158.998 82.9855C157.604 81.5121 155.872 80.7754 153.801 80.7754C151.77 80.7754 150.038 81.5121 148.604 82.9855C147.21 84.4589 146.513 86.4699 146.513 89.0186C146.513 91.5672 147.21 93.5782 148.604 95.0517C150.038 96.5251 151.77 97.2618 153.801 97.2618C155.832 97.2618 157.564 96.5251 158.998 95.0517C160.431 93.5384 161.148 91.5075 161.148 88.9588Z" fill="white"/>
<path d="M93.7859 88.9589C93.7859 85.5342 94.4231 82.5276 95.6974 79.9391C97.0116 77.3507 98.7837 75.3596 101.014 73.9658C103.244 72.572 105.733 71.8751 108.48 71.8751C110.83 71.8751 112.881 72.353 114.633 73.3087C116.425 74.2645 117.799 75.5189 118.755 77.0719V72.353H128.969V105.684H118.755V100.965C117.759 102.518 116.365 103.773 114.573 104.729C112.821 105.684 110.77 106.162 108.421 106.162C105.713 106.162 103.244 105.465 101.014 104.071C98.7837 102.638 97.0116 100.627 95.6974 98.0384C94.4231 95.4101 93.7859 92.3836 93.7859 88.9589ZM118.755 89.0186C118.755 86.47 118.038 84.459 116.604 82.9855C115.21 81.5121 113.498 80.7754 111.467 80.7754C109.436 80.7754 107.704 81.5121 106.27 82.9855C104.876 84.4191 104.18 86.4103 104.18 88.9589C104.18 91.5075 104.876 93.5385 106.27 95.0517C107.704 96.5251 109.436 97.2618 111.467 97.2618C113.498 97.2618 115.21 96.5251 116.604 95.0517C118.038 93.5783 118.755 91.5673 118.755 89.0186Z" fill="white"/>
<path d="M79.261 105.684L69.1063 91.7066V105.684H58.8918V61.4814H69.1063V85.9124L79.2012 72.3529H91.805L77.9468 89.0783L91.9245 105.684H79.261Z" fill="white"/>
<path d="M46.4122 68.8885C44.6202 68.8885 43.1468 68.3708 41.9919 67.3354C40.8769 66.2602 40.3194 64.9461 40.3194 63.393C40.3194 61.8001 40.8769 60.486 41.9919 59.4506C43.1468 58.3754 44.6202 57.8378 46.4122 57.8378C48.1644 57.8378 49.598 58.3754 50.713 59.4506C51.8679 60.486 52.4453 61.8001 52.4453 63.393C52.4453 64.9461 51.8679 66.2602 50.713 67.3354C49.598 68.3708 48.1644 68.8885 46.4122 68.8885ZM51.4896 72.353V105.684H41.2751V72.353H51.4896Z" fill="white"/>
<path d="M35.9574 77.2511C35.9574 79.6803 35.3999 81.9103 34.2849 83.9413C33.1699 85.9324 31.4575 87.5452 29.1478 88.7797C26.8381 90.0142 23.9709 90.6314 20.5462 90.6314H14.2144V105.684H4V63.7513H20.5462C23.8913 63.7513 26.7186 64.3288 29.0283 65.4836C31.338 66.6385 33.0703 68.2314 34.2252 70.2623C35.38 72.2932 35.9574 74.6228 35.9574 77.2511ZM19.7696 82.5077C21.7209 82.5077 23.1745 82.0497 24.1302 81.1338C25.0859 80.2179 25.5638 78.9236 25.5638 77.2511C25.5638 75.5786 25.0859 74.2843 24.1302 73.3684C23.1745 72.4525 21.7209 71.9946 19.7696 71.9946H14.2144V82.5077H19.7696Z" fill="white"/>
<g clip-path="url(#clip0_565_8269)">
<path fill-rule="evenodd" clip-rule="evenodd" d="M297.631 14.4135C297.672 14.4849 297.713 14.5563 297.753 14.6278L297.754 14.6273L320.835 54.7497L291.064 72L267.984 31.8776L267.984 31.8771C267.943 31.8063 267.902 31.7352 267.861 31.6638C261.419 20.4665 262.862 7.5276 271.083 2.76406C279.303 -1.99947 291.19 3.21617 297.631 14.4135ZM286.585 30.2042C290.46 27.9585 291.788 22.9849 289.551 19.0953C287.313 15.2056 282.357 13.873 278.482 16.1186C274.606 18.3643 273.279 23.3379 275.516 27.2275C277.754 31.1172 282.709 32.4498 286.585 30.2042Z" fill="#FE6A15"/>
<path d="M286.585 30.2042C290.46 27.9585 291.788 22.9849 289.551 19.0953C287.313 15.2056 282.357 13.873 278.482 16.1186C274.606 18.3643 273.279 23.3379 275.516 27.2275C277.754 31.1172 282.709 32.4498 286.585 30.2042Z" fill="white"/>
<path d="M256.726 37.8636C256.208 36.5712 262.61 31.1501 266.089 28.4781L268.83 33.718L271.415 38.1952C271.292 37.982 257.375 39.4791 256.726 37.8636Z" fill="#FFD53C"/>
<circle cx="282.77" cy="23.3961" r="2.95418" transform="rotate(-30 282.77 23.3961)" fill="black"/>
</g>
<defs>
<clipPath id="clip0_565_8269">
<rect x="255" width="51" height="64" rx="25.5" fill="white"/>
</clipPath>
</defs>
</svg>
